<?xml version="1.0" encoding="utf-8"?>
<!-- Generator: Adobe Illustrator 24.0.1, SVG Export Plug-In . SVG Version: 6.00 Build 0)  -->
<svg version="1.1"
	 id="oilers" class="teamLogo" inkscape:output_extension="org.inkscape.output.svg.inkscape" inkscape:version="0.46" sodipodi:docname="Oilers Vintage Logo.svg" sodipodi:version="0.32" xmlns:cc="http://creativecommons.org/ns#" xmlns:dc="http://purl.org/dc/elements/1.1/" xmlns:inkscape="http://www.inkscape.org/namespaces/inkscape" xmlns:rdf="http://www.w3.org/1999/02/22-rdf-syntax-ns#" xmlns:sodipodi="http://sodipodi.sourceforge.net/DTD/sodipodi-0.dtd" xmlns:svg="http://www.w3.org/2000/svg"
	 xmlns="http://www.w3.org/2000/svg" xmlns:xlink="http://www.w3.org/1999/xlink" x="0px" y="0px" viewBox="0 0 272 272"
	 style="enable-background:new 0 0 272 272;" xml:space="preserve">
<style type="text/css">
	.st0{fill:#003876;}
	.st1{fill:#FFFFFF;}
	.st2{fill:#E56B1F;}
</style>
<g id="oilers_logo">
	<path id="path12" class="st0" d="M214.1,132.2c0,1.4,0.9,2.4,2.2,3.4c2.1,1.6,12.7,10.3,12.7,10.3c1.2,1.3,3.9,2.7,3.9,7.7
		c0,4.1,0.7,17.6-5.2,31.6c-5.8,13.8-12.5,24.6-24.5,38v-72.4h9.8v13.9c0.2,5.2,8.3,4.6,8.3,0.8v-9.8c0-1.6,0-2.1-0.9-2.8
		c-0.9-0.7-13.8-11.1-14.9-11.8c-1-0.8-1.6-2-1.6-4.9v-27.3c0.2-3.6,2-7.4,7.7-7.4h13.8c5.4,0.6,8.2,2.4,8.2,9.1v19.9h-11.4v-6.9
		c0-5.8-8.2-6-8.2-0.2L214.1,132.2L214.1,132.2z"/>
	<path id="path14" class="st1" d="M203.3,150.7v72.4c12-13.4,18.7-24.2,24.5-38c5.9-14,5.2-27.5,5.2-31.6c0-5-2.7-6.4-3.9-7.7
		c0,0-10.7-8.6-12.7-10.3c-1.3-1-2.2-1.9-2.2-3.4v-9.1c0-5.8,8.2-5.6,8.2,0.2v7h11.4v-19.9c0-6.7-2.9-8.5-8.2-9.1h-13.8
		c-5.6,0-7.5,3.9-7.7,7.4V136c0,2.9,0.6,4.1,1.6,4.9c1.1,0.7,14,11.1,14.9,11.8c0.9,0.8,0.9,1.2,0.9,2.8v9.8c0,3.9-8.1,4.4-8.3-0.8
		v-13.9H203.3z M122.6,118.8c5.1,0,7.1,2.1,7.1,5.2c0.1,2.7,0,39.1,0,39.1c0,3-1.1,5.2-3.3,5.2v72.9c0,6.8-5,8-5,8
		c4,0.5,10.1,0.7,14.3,0.7c4.8,0,9.1-0.2,14.1-1c4.4-0.7,8-3.5,9-7.6l2.1,0.3c-0.9,4.6-2.8,5.8-2.8,5.8c6.4-1.5,14.4-4.4,20.3-7
		c3.1-1.4,4.3-5.4,4.3-10c0-0.1,0-0.8,0-1.8h2.4c0.1,7.1-0.8,8.5-1.1,8.7c6.2-3.6,9.8-5.8,14.6-10.3c1.6-1.5,2.2-3.6,2.3-11.1v-47.7
		c-2.5,0-4.1-2.3-4.1-5.3v-18.1c0-4.3-3.7-6.1-3.7-6.1s-0.5,0.1,2.1-1.9c2.6-2.1,2-7.1,2-9.1v-16.3c0-7.7-3.8-9.6-9.1-10.3h-26.1
		v17.5h-2.6v-17.4h-36.7V118.8L122.6,118.8z M105.6,22.1C100.6,29,94.2,39,94.2,53c0,21.8,18.4,42.1,41.8,42.1
		c23.4,0,41.8-20.4,41.8-42.1c0-14-6.5-24-11.4-30.9c50.4,13.4,87.5,59.3,87.5,113.9c0,65.1-52.8,117.9-117.9,117.9
		c-65.1,0-117.9-52.8-117.9-117.9C18.1,81.4,55.2,35.4,105.6,22.1z M38.3,159.9c1.6,22.5,10,40.5,23,55.5c4.3,4.9,9.3,2.8,9.3-5.2
		h2.4v2.8c0,1.9-0.8,5.4-3.4,6.9c-2.4,1.4-4.5,0.6-4.5,0.6c5.7,6.2,12.1,11.3,19.3,15.4c3.1,1.8,6.4-0.7,6.4-4.9H93v1.8
		c0,4.5-4.4,5.3-4.4,5.3c8.8,4.7,16.9,8.2,27.2,9.8c4.8,0.7,8.5-2.3,8.5-7.2v-90.7h-8.4v12.7c0,3.8-0.5,5.5-4,5.5
		c-3.6,0-3.8-2.3-3.8-5.8c0-1.5,0-36.9,0-38.5c0-3.4,3.6-5.2,5.8-5.2v-17.5H93.9v17.5h-2.3v-17.5H73.1v17.5h-2.5v-6.5
		c0-9.8-7.3-11.1-11.7-11.1H50c-9.2,0-11.7,8.5-11.7,14.9V159.9L38.3,159.9z"/>
	<path id="path16" class="st0" d="M105.9,53.4c0,17.8,15.8,29.6,30.1,29.6c14.3,0,30.1-11.8,30.1-29.6c0-4.6-1.1-13.1-7.5-23.2
		l-15-23.7c68.1,3.9,122.1,60.4,122.1,129.4c0,71.6-58.1,129.7-129.7,129.7C64.4,265.7,6.3,207.6,6.3,136
		c0-69.1,54-125.5,122.1-129.4l-15,23.7C107,40.3,105.9,48.8,105.9,53.4z M18.1,136c0,65.1,52.8,117.9,117.9,117.9
		c65.1,0,117.9-52.8,117.9-117.9c0-54.6-37.1-100.5-87.5-113.9c5,6.9,11.4,16.9,11.4,30.9c0,21.8-18.4,42.1-41.8,42.1
		c-23.4,0-41.8-20.4-41.8-42.1c0-14,6.5-24,11.5-30.9C55.2,35.4,18.1,81.4,18.1,136z"/>
	<path id="path18" class="st0" d="M177.8,130.5c0,5.2,7.3,5,7.3-0.3c0-4.8,0.2-4.2,0-7.3c-0.4-5.5-7.3-5.3-7.3,0.2V130.5z
		 M177.2,163.1c0,3.1,3,5.3,5.5,5.3c0,1.1,0,50.1,0,60.3c0,1,0,1.6,0,1.8c0,4.6-1.2,8.6-4.3,10c-5.9,2.5-13.9,5.5-20.3,6.9
		c0,0,1.9-1.2,2.8-5.8c0.3-1.6,0.6-3.7,0.5-6.2c0-2.1,0-64.7,0-67c2.4,0,4.8-2.2,4.8-5.2v-38.9c0-3.1-2.6-5.4-4.3-5.4v-17.5h26.1
		c5.3,0.6,9.1,2.5,9.1,10.3v16.3c0,1.9,0.6,7-2,9.1c-2.5,2.1-2.1,1.9-2.1,1.9s3.7,1.8,3.7,6.1V163c0,2.9,1.6,5.3,4.1,5.3V216
		c-0.2,7.4-0.7,9.6-2.3,11.1c-4.9,4.4-8.4,6.7-14.6,10.3c0.3-0.3,1.2-1.6,1.1-8.7v-78.8c0-3.4-1.4-5.8-4-5.8c-3.1,0-4,2.7-4,5.2
		V163.1L177.2,163.1z"/>
	<path id="path20" class="st1" d="M177.8,123.1c0-5.5,7-5.7,7.3-0.2c0.2,3.1,0,2.6,0,7.3c0,5.3-7.3,5.5-7.3,0.3V123.1z"/>
	<path id="path22" class="st1" d="M181.2,144c2.5,0,4,2.4,4,5.8v78.8h-2.4c0-10.1,0-59.2,0-60.3c-2.5,0-5.5-2.2-5.5-5.3v-13.8
		C177.2,146.7,178.1,144,181.2,144z"/>
	<path id="path24" class="st2" d="M136,8.8c8.6,21.5,21.9,29.7,21.9,45c0,10.5-8.7,20.7-21.9,20.7c-13.3,0-22-10.2-22-20.7
		C114.1,38.5,127.4,30.3,136,8.8z"/>
	<path id="path26" class="st1" d="M145.5,168.5c-3.7,0-3.8-2.4-3.8-6.2c0-0.6,0-9.2,0-15.9h9.2v-12.8h-9.2c0-4.5,0-8.4,0-8.9
		c0-3.4,0.6-6,4.6-6c3.3,0,3.7,3,3.7,5.5v5.8h9.3v-11.1h2.6c1.7,0,4.3,2.3,4.3,5.4v38.9c0,3-2.4,5.2-4.8,5.2c0,2.4,0,64.9,0,67
		c0,2.6-0.2,4.6-0.5,6.2l-2.1-0.3c0.2-0.8,0.3-1.6,0.3-2.4v-88.6h-9.6c0,0,0,6.5,0,12.1C149.5,166.8,149,168.5,145.5,168.5z"/>
	<path id="path28" class="st0" d="M141.6,162.3c0,3.8,0.2,6.2,3.8,6.2c3.5,0,4-1.7,4-6.2c0-5.6,0-12.1,0-12.1h9.6v88.6
		c0,0.9-0.1,1.7-0.3,2.4c-1,4.1-4.6,6.9-9,7.6c-5,0.8-9.3,1-14.1,1c-4.2,0-10.2-0.3-14.3-0.7c0,0,5-1.2,5-8v-72.9
		c2.1,0,3.3-2.2,3.3-5.2c0,0,0.1-36.4,0-39.1c0-3.1-2.1-5.2-7.1-5.2v-17.4h36.7v17.4v11.1H150v-5.8c0-2.5-0.4-5.5-3.7-5.5
		c-4,0-4.6,2.6-4.6,6c0,0.5,0,4.5,0,8.9h9.2v12.8h-9.2C141.6,153.1,141.6,161.7,141.6,162.3z"/>
	<path id="path30" class="st1" d="M136,74.6c13.2,0,21.9-10.2,21.9-20.7c0-15.4-13.3-23.6-21.9-45c-8.6,21.5-22,29.7-22,45
		C114.1,64.4,122.7,74.6,136,74.6z M6.3,136c0,71.6,58.1,129.7,129.7,129.7c71.6,0,129.7-58.1,129.7-129.7
		c0-69.1-54-125.6-122.1-129.4l15,23.7c6.4,10.1,7.5,18.6,7.5,23.2c0,17.8-15.8,29.6-30.1,29.6c-14.3,0-30.1-11.8-30.1-29.6
		c0-4.6,1.1-13.1,7.5-23.2l15-23.7C60.3,10.4,6.3,66.9,6.3,136z M136,0c75,0,136,61,136,136c0,75-61,136-136,136C61,272,0,211,0,136
		C0,61,61,0,136,0z"/>
	<path id="path32" class="st0" d="M108,162.5c0.1,3.5,0.2,5.8,3.8,5.8c3.6,0,4-1.6,4-5.5v-12.7h8.4v90.7c0,4.9-3.7,7.9-8.5,7.2
		c-10.3-1.6-18.4-5-27.2-9.8c0,0,4.4-0.8,4.4-5.3v-1.8v-62.9c2.5,0,5.1-2.3,5.1-5.2V124c0-3.4-2.1-5.2-4.2-5.2v-17.5h19.9v17.5
		c-2.2,0-5.8,1.8-5.8,5.2C108,125.7,107.9,161.1,108,162.5z"/>
	<path id="path34" class="st1" d="M87.2,124c0-3.1,2.3-5.2,4.3-5.2h2.3c2.1,0,4.2,1.8,4.2,5.2v39.1c0,2.9-2.6,5.2-5.1,5.2v62.9h-2.2
		v-62.9c-2,0-3.6-2.4-3.6-5.2V124z"/>
	<path id="path36" class="st0" d="M90.8,168.3v62.9c0,4.2-3.3,6.7-6.4,4.9c-7.2-4.1-13.6-9.2-19.3-15.4c0,0,2.1,0.8,4.5-0.6
		c2.6-1.5,3.4-5,3.4-6.9v-2.8v-42c2.4,0,4.4-2.7,4.4-5.1V124c0-3.6-2.1-5.2-4.3-5.2v-17.5h18.4v17.5c-2.1,0-4.3,2.1-4.3,5.2v39.1
		C87.2,165.9,88.8,168.3,90.8,168.3z"/>
	<path id="path38" class="st1" d="M73.1,118.8c2.2,0,4.3,1.6,4.3,5.2v39.2c0,2.4-1.9,5.1-4.4,5.1v42h-2.4v-91.4H73.1L73.1,118.8z"/>
	<path id="path40" class="st0" d="M58.9,101.2c4.4,0,11.7,1.3,11.7,11.1v6.5v91.4c0,8-5,10.1-9.3,5.2c-13-15-21.4-33-23-55.5V116
		c0-6.4,2.5-14.9,11.7-14.9H58.9L58.9,101.2z M49.5,163.9c0,6.6,9.2,6.2,9.2-0.3v-40.5c-0.4-6.2-9.2-6-9.2,0.3V163.9z"/>
	<path id="path42" class="st1" d="M49.5,123.4c0-6.2,8.8-6.5,9.2-0.3v40.5c0,6.5-9.2,6.8-9.2,0.3V123.4z"/>
</g>
</svg>
