<?xml version="1.0" encoding="utf-8"?>
<!-- Generator: Adobe Illustrator 24.0.1, SVG Export Plug-In . SVG Version: 6.00 Build 0)  -->
<svg version="1.1" id="Title" xmlns="http://www.w3.org/2000/svg" xmlns:xlink="http://www.w3.org/1999/xlink" x="0px" y="0px"
	 viewBox="0 0 536.3 152.83" style="enable-background:new 0 0 536.3 152.83;" xml:space="preserve">
<g id="Wayne_Gretzky">
	<path d="M208.03,3.96l-6.24,45.97h-3.31l-4.98-34.57c-0.02-0.6-0.06-1.5-0.12-2.7c0,0.63-0.04,1.52-0.12,2.7l-4.98,34.57h-3.31
		l-6.24-45.97h4.04l3.9,33.08c0.02,0.74,0.06,1.84,0.12,3.28c-0.02-0.74,0.02-1.84,0.12-3.28l4.75-33.08h3.49l4.72,33.08
		c0.04,0.74,0.08,1.84,0.12,3.28c0-0.74,0.05-1.84,0.15-3.28l3.9-33.08H208.03z"/>
	<path d="M234.97,49.81h-4.04l-1.61-10.2h-9.11l-1.61,10.2h-3.93V49.7l8.17-45.85h4.01L234.97,49.81z M228.79,36.02l-4.01-24.84
		l-4.04,24.84H228.79z"/>
	<path d="M261.91,4.23l-5.57,18.54c-0.7,1.86-1.63,4.95-2.78,9.29v17.75h-4.07V32.06c-0.27-1.48-0.69-3.05-1.26-4.69
		c-0.94-2.81-1.45-4.35-1.52-4.6l-5.57-18.54c0-0.02,0-0.11,0-0.26h4.13l6.3,22.94l6.24-22.94h4.1
		C261.91,4.1,261.91,4.19,261.91,4.23z"/>
	<path d="M288.78,49.81h-2.81l-12.25-33.72v33.72h-3.84V3.96h3.05l12.01,33.13V3.96h3.84V49.81z"/>
	<path d="M314.17,49.81h-15.06V3.96h14.88v3.6h-10.81v17.11h9.84v3.66h-9.84v17.87h10.99V49.81z"/>
	<path d="M223.57,142.13c0,5.12-2.56,7.68-7.68,7.68h-26.43c-4.98,0-7.47-2.56-7.47-7.68V73.49c0-5.16,2.54-7.73,7.63-7.73h26.26
		c5.12,0,7.68,2.58,7.68,7.73v17.94h-12.62V76.55h-16.38v62.47h16.38v-23.53h-9.35V104.8h21.97V142.13z"/>
	<path d="M282.14,149.81h-13.11l-13.86-39.05v-7.57h12.35V76.55h-15.84v73.26h-12.57V65.76h33.35c5.05,0,7.57,2.58,7.57,7.73v30.56
		c0,3.54-1.2,5.84-3.6,6.88c-1.29,0.54-4.01,0.81-8.16,0.81L282.14,149.81z"/>
	<path d="M330.18,149.81h-34.86V65.76h34.54v11.12h-21.97v24.55h18.91v10.9h-18.91v26.37h22.29V149.81z"/>
	<path d="M380.79,76.88h-13.86v72.94h-12.51V76.88h-13.86V65.76h40.23V76.88z"/>
	<path d="M428.35,149.81h-38.62v-6.71l23.53-66.01h-21.65V65.76h36.63v7.25l-23.47,65.47h23.58V149.81z"/>
	<path d="M483.48,149.81h-13.86l-15.95-37.49v37.49H441.1V65.76h12.57v35.56l13.96-35.56h13.75v0.59l-17.08,39.91L483.48,149.81z"/>
	<path d="M536.3,66.24l-11.12,35.13c-1.36,3.47-3.21,9.33-5.53,17.56v30.88h-12.62v-30.88c-0.57-2.79-1.4-5.75-2.47-8.86
		c-1.9-5.33-2.92-8.24-3.06-8.7l-11.06-35.13c-0.04-0.04-0.04-0.2,0-0.48h12.94l10.04,36.52l9.99-36.52h12.89
		C536.3,66.01,536.3,66.17,536.3,66.24z"/>
</g>
<g>
	<path d="M60.55,141.99c0,3.19-0.99,5.8-2.98,7.81c-1.99,2.02-4.57,3.03-7.76,3.03H11.62c-3.19,0-5.83-1.01-7.91-3.03
		c-2.08-2.02-3.13-4.62-3.13-7.81V108.2h13.57v32.62h32.81V84.28H10.74c-3.19,0-5.78-1.01-7.76-3.03C0.99,79.23,0,76.63,0,73.44
		v-62.6c0-3.19,0.99-5.79,2.98-7.81C4.96,1.01,7.55,0,10.74,0H49.8c3.19,0,5.78,1.01,7.76,3.03c1.99,2.02,2.98,4.62,2.98,7.81
		V141.99z M46.97,72.46V12.01h-33.4v60.45H46.97z"/>
	<path d="M145.31,141.99c0,3.19-0.99,5.8-2.98,7.81c-1.99,2.02-4.57,3.03-7.76,3.03H96.39c-3.19,0-5.83-1.01-7.91-3.03
		c-2.08-2.02-3.13-4.62-3.13-7.81V108.2h13.57v32.62h32.81V84.28H95.51c-3.19,0-5.78-1.01-7.76-3.03c-1.99-2.02-2.98-4.62-2.98-7.81
		v-62.6c0-3.19,0.99-5.79,2.98-7.81C89.73,1.01,92.32,0,95.51,0h39.06c3.19,0,5.78,1.01,7.76,3.03c1.99,2.02,2.98,4.62,2.98,7.81
		V141.99z M131.74,72.46V12.01h-33.4v60.45H131.74z"/>
</g>
</svg>
