<?xml version="1.0" encoding="utf-8"?>
<!-- Generator: Adobe Illustrator 23.1.0, SVG Export Plug-In . SVG Version: 6.00 Build 0)  -->
<svg version="1.1" id="kings" class="teamLogo" xmlns="http://www.w3.org/2000/svg" xmlns:xlink="http://www.w3.org/1999/xlink" x="0px" y="0px"
	 viewBox="0 0 225 148" style="enable-background:new 0 0 225 148;" xml:space="preserve">
<style type="text/css">
	.st5{fill:#FFFFFF;}
	.st6{fill:#9FA4AB;}
</style>
<g>
	<path class="st5" d="M221.2,29.79c-0.38-0.64-1.07-1.03-1.82-1.03H157V9.41c0-1.17-0.95-2.12-2.12-2.12H71
		c-1.17,0-2.12,0.95-2.12,2.12v19.35h-24.8c-0.78,0-1.5,0.43-1.87,1.12L5.75,97.75C5.4,98.4,5.42,99.2,5.8,99.84
		c0.38,0.64,1.07,1.03,1.82,1.03h61.26v10.37c0,5.28,3.26,8.5,5.18,9.57c0.01,0,0.01,0.01,0.01,0.01l37.84,20.64
		c0.63,0.34,1.4,0.34,2.03,0l37.83-20.63c2.41-1.34,5.22-4.65,5.22-9.58v-10.37h25.92c0.78,0,1.5-0.43,1.87-1.11l36.47-67.87
		C221.6,31.22,221.58,30.43,221.2,29.79z"/>
	<path d="M154.88,30.88V9.41H71v21.47H44.08L7.62,98.75H71v12.49c0,4.29,2.57,6.87,4.1,7.72l37.84,20.64l37.83-20.63
		c1.54-0.85,4.11-3.43,4.11-7.72V98.75h28.04l36.47-67.87C219.38,30.88,154.88,30.88,154.88,30.88z"/>
	<path class="st6" d="M152.26,33.5V12.03H73.62V33.5H45.65L12,96.13h61.62v15.11c0,3.9,2.75,5.42,2.75,5.42l36.57,19.94l36.57-19.94
		c0,0,2.75-1.53,2.75-5.42V96.13h29.09L215,33.5C215,33.5,152.26,33.5,152.26,33.5z"/>
	<path d="M149.64,36.12V14.65h-73.4v21.47H47.22L16.39,93.51h59.86v16.01c0,4.06,4.41,6.49,4.41,6.49l32.28,17.6l32.29-17.6
		c0,0,4.41-2.43,4.41-6.49V93.51h30.14l30.83-57.39C210.62,36.12,149.64,36.12,149.64,36.12z"/>
	<path class="st6" d="M147.02,38.74V17.27H78.87v21.47H48.79L20.77,90.88h58.09v18.64c0,2.37,2.98,4.15,3.07,4.2l31.01,16.91
		l31.01-16.91c0.09-0.05,3.07-1.83,3.07-4.2V90.88h31.2l28.02-52.14H147.02z"/>
	<path d="M90.18,32.49h-0.21c-0.1,1.04-0.4,1.34-1.44,1.34H86.4v-5.95c0-0.26,0.15-0.43,0.72-0.47v-0.16
		c-0.38,0-0.85,0.06-1.28,0.06c-0.43,0-0.89-0.06-1.13-0.06v0.16c0.44,0.07,0.57,0.16,0.57,0.47v5.95c0,0.31-0.14,0.4-0.57,0.47
		v0.16h5.37C90.1,33.8,90.13,33.14,90.18,32.49z"/>
	<path d="M93.12,34.64c1.55,0,2.74-0.99,2.74-2.77c0-1.4-0.96-2.77-2.66-2.77c-1.58,0-2.72,1.17-2.72,2.74
		C90.47,33.46,91.54,34.64,93.12,34.64z M93.15,29.72c1.28,0,1.74,1.36,1.74,2.35c0,0.97-0.52,1.93-1.61,1.93
		c-1.25,0-1.84-1.23-1.84-2.38C91.44,30.22,92.41,29.72,93.15,29.72z"/>
	<path d="M98.07,32.26c1.33,0.27,1.61,0.37,1.61,0.96c0,0.5-0.45,0.85-1.31,0.85c-0.72,0-1.4-0.16-1.79-1h-0.14l0.09,1.17
		c0.5,0.26,1.07,0.4,1.64,0.4c1.48,0,2.34-0.62,2.34-1.68c0-0.99-0.55-1.3-1.73-1.52c-0.98-0.18-1.46-0.32-1.46-0.85
		c0-0.6,0.54-0.94,1.35-0.94c0.64,0,1.18,0.31,1.38,0.91h0.16v-1.26c-0.48-0.08-0.98-0.22-1.47-0.22c-1.46,0-2.32,0.7-2.32,1.7
		C96.41,31.6,97.01,32.05,98.07,32.26z"/>
	<path d="M105.42,34.7v-0.16c-0.47-0.01-0.59-0.11-0.59-0.28c0-0.16,0.07-0.45,0.18-0.76l0.55-1.55h2.42l0.46,1.24
		c0.24,0.62,0.3,0.81,0.3,1.01c0,0.22-0.12,0.31-0.52,0.34v0.16c0.44,0,0.88-0.06,1.32-0.06c0.29,0,0.57,0.06,0.87,0.06v-0.16
		c-0.41-0.08-0.46-0.16-0.76-0.91l-1.9-4.97c-0.2-0.53-0.34-0.92-0.38-1.24c-0.19,0.03-0.39,0.07-0.58,0.07
		c-0.28,0-0.58-0.03-0.86-0.07v0.16c0.25,0.06,0.36,0.09,0.36,0.35c0,0.14-0.03,0.26-0.07,0.37l-2,5.5
		c-0.23,0.62-0.33,0.73-0.71,0.74v0.16c0.34,0,0.68-0.06,1.02-0.06C104.82,34.63,105.12,34.7,105.42,34.7z M106.76,28.59h0.02
		l1,2.79h-2.03L106.76,28.59z"/>
	<path d="M112.77,34.7v-0.16c-0.32-0.03-0.61-0.16-0.61-0.43v-2.54c0-0.96,0.6-1.61,1.34-1.61c0.53,0,0.96,0.27,0.96,1.1v2.9
		c0,0.25-0.05,0.51-0.07,0.73c0.2-0.02,0.58-0.07,0.78-0.07c0.26,0,0.56,0.04,0.78,0.07v-0.16c-0.43-0.05-0.52-0.19-0.52-0.53v-2.76
		c0-1.35-0.72-1.98-1.8-1.98c-0.61,0-1.15,0.35-1.44,0.9h-0.02c0-0.27,0.01-0.65,0.03-0.9c-0.4,0.15-1.03,0.36-1.52,0.51v0.09
		c0.38,0.02,0.52,0.13,0.52,0.51v3.74c0,0.27-0.29,0.39-0.61,0.43v0.16c0.38-0.03,0.69-0.06,1.09-0.06
		C112.08,34.63,112.39,34.66,112.77,34.7z"/>
	<path d="M118.17,34.65h1.73c0.52,0,0.84,0.07,0.84,0.6c0,0.78-0.95,1.06-1.57,1.06c-0.64,0-1.25-0.38-1.25-1.05
		c0-0.17,0.04-0.33,0.1-0.47l-0.73,0.33c-0.1,0.21-0.14,0.33-0.14,0.52c0,1,1.19,1.17,1.98,1.17c1.43,0,2.5-0.76,2.5-1.74
		c0-0.64-0.38-1.31-1.82-1.31h-1.86c-0.45,0-0.66-0.25-0.66-0.43c0-0.21,0.1-0.34,0.55-0.66c0.33,0.18,0.68,0.28,1.05,0.28
		c1.57,0,2.19-0.9,2.19-1.8c0-0.47-0.19-0.91-0.53-1.22l0.02-0.03c0.17,0.06,0.36,0.08,0.56,0.08c0.14,0,0.3-0.02,0.45-0.07
		l0.14-0.56c-0.86,0.19-1.72-0.09-2.63-0.09c-1.48,0-2.1,1.03-2.1,1.86c0,0.49,0.2,0.94,0.52,1.3l-0.98,0.61
		c-0.07,0.14-0.08,0.33-0.08,0.49C116.5,34.4,117.21,34.65,118.17,34.65z M118.9,29.83c0.82,0,1.14,0.77,1.14,1.43
		c0,0.57-0.26,1.13-0.94,1.13c-0.81,0-1.14-0.86-1.14-1.54C117.96,30.3,118.32,29.83,118.9,29.83z"/>
	<path d="M124.72,34.81c0.97,0,1.77-0.29,2.31-0.78l0.08-0.73c-0.91,0.65-1.25,0.74-1.83,0.74c-1.31,0-2.18-0.92-2.17-2.21h4.26
		c0-1.55-0.86-2.57-2.57-2.57c-1.57,0-2.73,1.17-2.73,2.74C122.07,33.64,123.14,34.81,124.72,34.81z M124.81,29.83
		c0.89,0,1.45,0.57,1.45,1.44h-3.09C123.26,30.45,123.96,29.83,124.81,29.83z"/>
	<path d="M128.75,27.47v6.65c0,0.27-0.29,0.39-0.6,0.43v0.16c0.38-0.03,0.68-0.06,1.09-0.06c0.4,0,0.71,0.03,1.09,0.06v-0.16
		c-0.31-0.03-0.61-0.16-0.61-0.43V28c0-0.53,0.03-1.06,0.06-1.59c-0.4,0.16-1.16,0.36-1.69,0.51V27c0.1,0.02,0.17,0.04,0.26,0.05
		C128.64,27.15,128.75,27.21,128.75,27.47z"/>
	<path d="M133.66,34.81c0.97,0,1.77-0.29,2.31-0.78l0.07-0.73c-0.91,0.65-1.25,0.74-1.83,0.74c-1.31,0-2.18-0.92-2.17-2.21h4.26
		c0-1.55-0.86-2.57-2.57-2.57c-1.57,0-2.73,1.17-2.73,2.74C131.01,33.64,132.08,34.81,133.66,34.81z M133.75,29.83
		c0.89,0,1.46,0.57,1.46,1.44h-3.09C132.21,30.45,132.9,29.83,133.75,29.83z"/>
	<path d="M138.71,32.44c1.33,0.27,1.61,0.37,1.61,0.96c0,0.49-0.45,0.86-1.31,0.86c-0.73,0-1.4-0.16-1.79-1h-0.13l0.09,1.17
		c0.49,0.26,1.07,0.39,1.63,0.39c1.48,0,2.34-0.62,2.34-1.68c0-0.99-0.55-1.3-1.73-1.52c-0.98-0.18-1.46-0.32-1.46-0.84
		c0-0.6,0.54-0.94,1.35-0.94c0.64,0,1.18,0.3,1.38,0.91h0.16v-1.26c-0.48-0.08-0.98-0.22-1.48-0.22c-1.45,0-2.32,0.7-2.32,1.7
		C137.06,31.77,137.66,32.22,138.71,32.44z"/>
	<path d="M95.79,85.07c0,0-3.97,0-1.74-4.08l15.71-28.98l-0.04,7.35h-1.95v0.67h1.95l-0.02,4.09h-5.01v0.68h5.01l-0.01,2.31h-7.79
		v0.68h7.78l-0.03,5.97h-4.38v0.67h4.38l0,0.77h-9.47v0.68h9.47l-0.02,3.61h-3.86v0.68h3.86l-0.02,3.13H98.71v0.68h10.87l-0.02,3.8
		h3.71l20.43-38.55c2.23-4.08,5.82-4.08,5.82-4.08l0.98-1.8h-12.15l-0.98,1.8c0,0,3.9,0,3.1,2.94h-8.74v0.68h8.49
		c-0.07,0.15-0.14,0.3-0.23,0.46l-1.2,2.23h-5.23v0.68h4.87l-3.09,5.78h-5.34v0.68h4.98l-7.41,13.84l0.64-29.08h-11.78l-0.98,1.8
		c0,0,2.43,0,2.81,1.64h-4.93v0.67h4.97c-0.04,0.48-0.22,1.06-0.61,1.77l-0.43,0.79h-8.75v0.67h8.38l-3.1,5.68h-6.63v0.67h6.26
		l-1.69,3.08h-9v0.68h8.63l-3.58,6.55h-4.96v0.68h4.59l-2.16,3.95h-8.59v0.67h8.23l-0.26,0.49h-4.59v0.67h4.22l-2.11,3.85h-7.32
		v0.68h6.95l-1.45,2.65c-2.23,4.08-5.82,4.08-5.82,4.08l-1.48,2.7h11.27L95.79,85.07z"/>
	<path d="M97.35,49.22c2.23-4.08,5.82-4.08,5.82-4.08l0.98-1.8H88.03l-0.98,1.8c0,0,3.48,0,3.55,2.22h-7.49v0.68h7.42
		c-0.08,0.35-0.24,0.74-0.48,1.19l-1.25,2.28h-7.72v0.67h7.35l-2.19,4H73.38v0.76h12.45l-2.66,4.87h-9.98v0.67h9.62l-0.21,0.39
		h-7.28v0.67h6.92l-1.11,2.02H70v0.68h10.74l-4.53,8.28h-5.64v0.68h5.27l-2.84,5.2h-4.64v0.68h4.27c-2.23,3.98-5.27,3.98-5.27,3.98
		l-1.48,2.7h13.99l1.48-2.7c0,0-3.59,0-1.36-4.08L97.35,49.22z"/>
	<path d="M64.65,81.33l-0.37-21.31L77.6,48.59c1.93-1.64,4.14-3.44,6.49-3.44l0.98-1.8H73.8l-0.98,1.8c0.75,0,2.71,0.43,2.52,1.69
		h-2.92v0.67h2.65c-0.15,0.23-0.36,0.49-0.65,0.77h-5.46v0.67h4.7l-1.8,1.54H64.8v0.67h6.26l-7.41,6.36h-3.28v0.68h2.5l-10.12,8.69
		l9.66-17.67c2.23-4.08,7.33-4.08,7.33-4.08l0.98-1.8H54.08l-0.98,1.8c0,0,2.56,0,2.64,1.93h-8.96v0.67h8.89
		c-0.09,0.42-0.27,0.91-0.58,1.48l-0.67,1.22h-7.45v0.67h7.08l-2.42,4.43h-8.32v0.67h7.95l-4.48,8.19h-8.58v0.67h8.21l-1.31,2.41
		h-5.65v0.67h5.28l-0.58,1.06H41.1v0.67h2.69l-2.21,4.05h-7.9v0.67h7.53l-3.48,6.36c-2.23,4.08-5.82,4.08-5.82,4.08l-1.48,2.7h16.24
		l1.48-2.7c0,0-3.97,0-1.74-4.08l9.74-12.83l0.13,8.1h-5.45v0.68h5.47l0.03,1.93h-2.99v0.68h3.01l0.02,1.16H51.6v0.68h4.77
		c0.01,3.11-2.75,3.7-3.96,3.7l-1.48,2.7h13.33l1.48-2.7C64.71,85.07,64.63,83.75,64.65,81.33z"/>
	<path d="M154.38,69.48c2.23-4.08,5.82-4.08,5.82-4.08l0.98-1.8h-16.12l-0.98,1.8c0,0,3.89,0,3.52,2.63h-10.73v0.68h10.56
		c-0.09,0.24-0.2,0.5-0.35,0.78l-1.52,2.78h-4.93v0.68h4.56l-0.95,1.73h-6.21v0.67h5.84l-0.53,0.96h-9.75v0.68h9.38l-1.4,2.55
		c-0.03,0.05-0.06,0.1-0.08,0.15h-5.88v0.68h5.5c-1.7,2.85-3.54,4.4-7.02,4.4c-4.32,0-6.77-4.41,1.32-19.2
		c9.19-16.82,16.38-19.98,19.83-19.98c2.73,0,4.18,1.15,4.91,2.6h-8.35v0.68h8.63c0.33,0.96,0.42,1.99,0.4,2.89h-12.5v0.68h12.47
		c-0.08,1.03-0.26,1.75-0.26,1.75h2.21l5.91-10.82h-3.34c0,0-0.93,1.71-1.95,1.71c-2.22,0-4.65-2.48-10.17-2.48
		c-3.69,0-8.83,2.03-14.21,6.67h-4.53v0.67h3.77c-0.6,0.54-1.21,1.12-1.81,1.73h-3.01v0.68h2.35c-3.24,3.4-6.49,7.77-9.47,13.23
		c-2.58,4.72-3.65,9.12-3.44,12.78h-2.93v0.68h2.99c0.12,1.1,0.35,2.14,0.71,3.08h-5.53v0.68h5.81c0.2,0.44,0.43,0.86,0.68,1.25
		h-4.27v0.68h4.74c1.87,2.43,4.86,3.85,8.76,3.85c8.22,0,13.34-5.81,15.95-10.58L154.38,69.48z"/>
	<path d="M194.57,43.91c0,0-0.9,1.65-2.08,1.65c-1.89,0-3.41-2.99-9.47-2.99c-5.5,0-12.26,2.72-15.94,9.44
		c-1.11,2.03-1.77,3.82-2.07,5.42h-14.95v0.68h14.84c-0.12,0.86-0.13,1.66-0.05,2.4h-6.31v0.67h6.41c0.03,0.2,0.07,0.39,0.12,0.58
		h-3.64v0.67h3.84c1.27,3.86,4.92,6.3,7.55,8.86h-9.36v0.67h10.02c0.55,0.59,1.04,1.19,1.42,1.83h-12.21v0.68h12.56
		c0.57,1.26,0.7,2.67,0.11,4.33h-8.15v0.68h7.88c-0.1,0.23-0.22,0.46-0.35,0.7c-0.01,0.02-0.02,0.05-0.04,0.07h-5.66v0.67h5.22
		c-1.28,1.75-4.64,4.89-11.6,4.89c-8.13,0-5.04-10.17-5.04-10.17h-1.99l-6.71,12.29h3.27l1.46-2.68c0,0,4.44,3.27,10.91,3.27
		c4.49,0,12.27-0.66,16.48-8.35c9.75-17.85-12.8-17.38-6.46-28.97c1.94-3.54,5.77-5.59,8.52-5.59c2.69,0,4.69,1.39,5.83,3.22h-3.79
		v0.67h4.16c0.19,0.4,0.35,0.83,0.46,1.25h-8v0.68h8.14c0.17,1.06,0.09,2.14-0.28,3.09h2.18l5.81-10.64L194.57,43.91L194.57,43.91z"
		/>
	<path d="M103.5,119.15c0.69,0,1.26-0.56,1.26-1.27c0-0.69-0.57-1.25-1.26-1.25c-0.7,0-1.26,0.56-1.26,1.25
		C102.24,118.59,102.8,119.15,103.5,119.15z"/>
	<path d="M108.22,119.15c0.69,0,1.26-0.56,1.26-1.27c0-0.69-0.56-1.25-1.26-1.25c-0.7,0-1.26,0.56-1.26,1.25
		C106.96,118.59,107.52,119.15,108.22,119.15z"/>
	<path d="M112.94,119.15c0.69,0,1.26-0.56,1.26-1.27c0-0.69-0.56-1.25-1.26-1.25c-0.7,0-1.26,0.56-1.26,1.25
		C111.68,118.59,112.25,119.15,112.94,119.15z"/>
	<path d="M117.66,119.15c0.69,0,1.26-0.56,1.26-1.27c0-0.69-0.57-1.25-1.26-1.25s-1.26,0.56-1.26,1.25
		C116.4,118.59,116.96,119.15,117.66,119.15z"/>
	<path d="M122.39,119.15c0.69,0,1.26-0.56,1.26-1.27c0-0.69-0.56-1.25-1.26-1.25c-0.7,0-1.26,0.56-1.26,1.25
		C121.13,118.59,121.69,119.15,122.39,119.15z"/>
	<path d="M130.52,106.92c0.01-0.63-0.08-1.24-0.25-1.84c0.4-0.21,0.67-0.63,0.67-1.12c0-0.69-0.56-1.26-1.26-1.26
		c-0.17,0-0.33,0.03-0.48,0.1c-0.23-0.34-0.48-0.67-0.75-0.99c0.29-0.23,0.47-0.59,0.47-0.98c0-0.7-0.56-1.26-1.26-1.26
		c-0.42,0-0.79,0.2-1.02,0.52c-0.44-0.35-0.89-0.65-1.34-0.91c0.06-0.15,0.09-0.31,0.09-0.48c0-0.69-0.56-1.26-1.26-1.26
		c-0.52,0-0.96,0.31-1.15,0.76c-0.52-0.12-1.06-0.19-1.6-0.21c-0.14-0.54-0.64-0.94-1.22-0.94c-0.63,0-1.15,0.46-1.24,1.06
		c-0.41,0.06-0.79,0.12-1.14,0.19c-0.19-0.44-0.64-0.75-1.15-0.75c-0.52,0-0.97,0.31-1.16,0.77V94c0.34-0.22,0.57-0.61,0.57-1.06
		c0-0.56-0.36-1.03-0.86-1.19c-0.33-0.92-1-1.61-2.25-1.61c-1.24,0-1.91,0.69-2.24,1.61c-0.5,0.17-0.86,0.64-0.86,1.19
		c0,0.44,0.23,0.83,0.57,1.06v4.33c-0.19-0.45-0.64-0.77-1.16-0.77c-0.51,0-0.96,0.31-1.15,0.75c-0.34-0.07-0.73-0.14-1.14-0.19
		c-0.1-0.6-0.61-1.06-1.24-1.06c-0.58,0-1.07,0.4-1.22,0.94c-0.54,0.02-1.08,0.09-1.6,0.21c-0.19-0.44-0.64-0.76-1.16-0.76
		c-0.7,0-1.26,0.56-1.26,1.26c0,0.17,0.03,0.33,0.09,0.48c-0.45,0.26-0.9,0.57-1.34,0.91c-0.23-0.32-0.6-0.52-1.02-0.52
		c-0.7,0-1.26,0.56-1.26,1.26c0,0.4,0.18,0.75,0.47,0.98c-0.27,0.31-0.52,0.65-0.74,0.99c-0.15-0.06-0.31-0.1-0.48-0.1
		c-0.7,0-1.26,0.56-1.26,1.26c0,0.49,0.27,0.91,0.67,1.12c-0.17,0.59-0.26,1.21-0.25,1.84c-0.62,0.08-1.09,0.61-1.09,1.25
		c0,0.7,0.56,1.26,1.26,1.26c0.12,0,0.23-0.01,0.33-0.04c0.26,0.73,0.59,1.41,0.95,2.04c-0.56,0.13-0.98,0.63-0.98,1.23
		c0,0.69,0.57,1.26,1.26,1.26c0.44,0,0.84-0.23,1.06-0.58c0.95,1.14,1.89,1.94,2.37,2.32v4.83h24.84v-4.83
		c0.48-0.38,1.42-1.18,2.36-2.32c0.23,0.35,0.62,0.58,1.06,0.58c0.7,0,1.26-0.57,1.26-1.26c0-0.6-0.42-1.1-0.98-1.23
		c0.37-0.62,0.7-1.31,0.95-2.04c0.11,0.03,0.22,0.04,0.33,0.04c0.69,0,1.26-0.56,1.26-1.26
		C131.62,107.53,131.14,107.01,130.52,106.92z M116.24,100.4c3.78,1.64,2.35,4.93,2.35,4.93
		C115.92,103.68,116.24,100.4,116.24,100.4z M111,94.2c0.03,0,0.06,0,0.09,0c0.7,0,1.26-0.56,1.26-1.26c0-0.57-0.39-1.06-0.91-1.21
		c0.18-0.46,0.74-1.09,1.5-1.09c0.76,0,1.32,0.63,1.5,1.09c-0.53,0.15-0.92,0.64-0.92,1.21c0,0.7,0.56,1.26,1.26,1.26
		c0.03,0,0.06,0,0.09,0v0.57H111L111,94.2L111,94.2z M113.4,95.25v0.93h-0.92v-0.93H113.4z M111.2,99.24h3.48
		c0,0,1.49,0.98,1.32,6.88h-6.12C109.71,100.22,111.2,99.24,111.2,99.24z M113.74,109c-0.17-0.26-0.46-0.44-0.8-0.44c0,0,0,0,0,0h0
		c-0.34,0-0.63,0.18-0.8,0.44c-0.58-0.46-1.47-1.42-1.01-2.26h3.63C115.21,107.59,114.32,108.54,113.74,109z M109.64,100.4
		c0,0,0.31,3.28-2.35,4.93C107.3,105.33,105.86,102.04,109.64,100.4z M108.7,99.96c-1.62,1.33-3.67,3.74-3.67,5.49
		c0,1.6,1.53,1.94,1.53,1.94l-0.8,1.6c1.15-0.44,2.11-0.57,2.11,0.91c0,1.07-0.41,1.09-0.41,1.49c0,0.04,0.23,0.19,0.76,0.19
		c0.54,0,0.98-0.09,0.98-1.33c0-1.71,0.17-2.31,0.43-2.31c0.38,0,0.23,0.93,2.37,1.42c0,0.02,0,0.03-0.01,0.05c0,0.03,0,0.06,0,0.1
		c0,0.03,0,0.07,0,0.1c0.05,0.48,0.45,0.86,0.94,0.86h0c0,0,0,0,0,0c0.49,0,0.9-0.37,0.95-0.86c0-0.03,0-0.06,0-0.1s0-0.06,0-0.1
		c0-0.02,0-0.03-0.01-0.05c2.14-0.5,1.99-1.42,2.37-1.42c0.25,0,0.43,0.6,0.43,2.31c0,1.24,0.45,1.33,0.98,1.33
		c0.54,0,0.76-0.15,0.76-0.19c0-0.39-0.41-0.42-0.41-1.49c0-1.48,0.96-1.35,2.12-0.91l-0.81-1.6c0,0,1.53-0.35,1.53-1.94
		c0-1.74-2.05-4.15-3.67-5.49c0.04-0.02,0.07-0.04,0.11-0.06c3.24,2.11,5.94,3.98,5.94,6.18c0,1.23-0.75,2.29-1.11,2.73
		c-0.17-0.15-0.4-0.25-0.64-0.25c-0.53,0-0.95,0.43-0.95,0.96s0.43,0.95,0.95,0.95s0.96-0.43,0.96-0.95c0-0.25-0.1-0.48-0.25-0.65
		c0.44-0.28,1.37-0.82,1.84-0.82c0.7,0,0.8,0.86,0.8,1.57c0,1.57-0.77,3.09-1.96,2.79c0.57,1.28-0.74,1.57-0.74,1.57v1.31h-1.98
		c0.06-1.17,0.5-1.1,0.5-1.1v-1.24c-0.85,0.25-1.37-0.16-0.41-1.08c0,0-1.54-0.49-1.54,2.12c0,0.62,0.04,1.09,0.06,1.31h-2.35
		c-0.08-0.71,0.47-1.34,0.47-1.79c0-0.7-0.98-1.44-1.75-0.91c0,0,0.71,0.38,0.71,0.82c0,0.44-0.71,0.71-1.25,0.71
		c-0.13,0-0.54-0.15-0.54,0.67c0,0.23,0.01,0.4,0.03,0.51h-2.21c0.02-0.11,0.03-0.28,0.03-0.51c0-0.82-0.41-0.67-0.54-0.67
		c-0.54,0-1.25-0.26-1.25-0.71c0-0.44,0.71-0.82,0.71-0.82c-0.78-0.53-1.75,0.21-1.75,0.91c0,0.46,0.54,1.08,0.47,1.79h-2.35
		c0.02-0.22,0.06-0.68,0.06-1.31c0-2.6-1.54-2.12-1.54-2.12c0.96,0.93,0.44,1.34-0.41,1.08v1.24c0,0,0.44-0.07,0.5,1.1h-1.98v-1.31
		c0,0-1.31-0.3-0.74-1.57c-1.19,0.3-1.96-1.22-1.96-2.79c0-0.71,0.1-1.57,0.8-1.57c0.47,0,1.39,0.54,1.84,0.82
		c-0.16,0.17-0.25,0.4-0.25,0.65c0,0.53,0.43,0.95,0.95,0.95c0.52,0,0.95-0.43,0.95-0.95s-0.43-0.96-0.95-0.96
		c-0.25,0-0.47,0.1-0.64,0.25c-0.36-0.44-1.11-1.5-1.11-2.73c0-2.2,2.7-4.07,5.94-6.18C108.63,99.92,108.67,99.94,108.7,99.96z
		 M95.84,106.95c-0.01-0.58,0.08-1.16,0.24-1.72c0.04,0,0.08,0,0.11,0c0.7,0,1.26-0.57,1.26-1.27c0-0.34-0.14-0.65-0.36-0.88
		c0.24-0.36,0.5-0.71,0.79-1.03c0.11,0.03,0.22,0.04,0.33,0.04c0.69,0,1.26-0.56,1.26-1.26c0-0.1-0.01-0.19-0.03-0.29
		c0.45-0.36,0.93-0.69,1.4-0.97c0.23,0.23,0.55,0.38,0.9,0.38c0.7,0,1.26-0.56,1.26-1.26c0-0.01,0-0.02,0-0.03
		c0.47-0.11,0.97-0.17,1.47-0.19c0.08,0.62,0.61,1.1,1.25,1.1c0.6,0,1.1-0.42,1.23-0.97c0.37,0.05,0.73,0.11,1.04,0.18
		c0,0.01,0,0.02,0,0.04c0,0.32,0.12,0.61,0.31,0.83c-3.52,0.73-7.85,2.17-8.02,7.79h-3.73C96.38,107.21,96.13,107.03,95.84,106.95z
		 M98.07,111.86c-0.18-0.22-0.43-0.38-0.71-0.44c-0.42-0.68-0.79-1.43-1.07-2.25c0.24-0.18,0.42-0.46,0.47-0.77h3.52
		c0.06,1.32,0.29,2.48,0.59,3.46L98.07,111.86L98.07,111.86z M98.35,112.83h2.86c0.52,1.33,1.11,2.19,1.32,2.47h-1.68
		C100.37,114.93,99.35,114.07,98.35,112.83z M124.88,120H101v-4.22h23.88L124.88,120L124.88,120z M125.04,115.3h-1.68
		c0.21-0.29,0.79-1.14,1.32-2.47h2.86C126.53,114.07,125.51,114.93,125.04,115.3z M128.52,111.42c-0.29,0.06-0.54,0.22-0.71,0.44
		h-2.8c0.3-0.98,0.54-2.14,0.59-3.46h3.52c0.06,0.31,0.23,0.59,0.48,0.77C129.31,109.99,128.94,110.74,128.52,111.42z
		 M129.33,107.44h-3.73c-0.18-5.62-4.5-7.06-8.02-7.79c0.19-0.22,0.31-0.52,0.31-0.83c0-0.01,0-0.03,0-0.04
		c0.32-0.06,0.67-0.13,1.04-0.18c0.13,0.56,0.63,0.97,1.23,0.97c0.64,0,1.17-0.48,1.25-1.1c0.5,0.02,0.99,0.08,1.47,0.19
		c0,0.01,0,0.02,0,0.03c0,0.7,0.56,1.26,1.26,1.26c0.35,0,0.67-0.15,0.9-0.38c0.47,0.28,0.94,0.6,1.4,0.97
		c-0.02,0.09-0.03,0.19-0.03,0.29c0,0.69,0.56,1.26,1.26,1.26c0.11,0,0.22-0.02,0.33-0.04c0.28,0.33,0.55,0.68,0.79,1.03
		c-0.22,0.23-0.36,0.54-0.36,0.88c0,0.7,0.57,1.27,1.26,1.27c0.04,0,0.08,0,0.11,0c0.16,0.56,0.25,1.14,0.24,1.72
		C129.75,107.03,129.5,107.21,129.33,107.44z"/>
	<circle cx="112.94" cy="100.78" r="0.95"/>
	<circle cx="112.94" cy="104.08" r="0.95"/>
</g>
</svg>
