<?xml version="1.0" encoding="utf-8"?>
<!-- Generator: Adobe Illustrator 23.1.0, SVG Export Plug-In . SVG Version: 6.00 Build 0)  -->
<svg version="1.1" id="nhl" class="teamLogo" xmlns="http://www.w3.org/2000/svg" xmlns:xlink="http://www.w3.org/1999/xlink" x="0px" y="0px"
	 viewBox="0 0 280.84 280" style="enable-background:new 0 0 280.84 280;" xml:space="preserve">
<style type="text/css">
	.st0{fill:#FFFFFF;}
	.st1{fill:#FF6300;}
</style>
<g>
	<path class="st0" d="M251.81,102.77c0-22.19,11.14-37.46,17.53-49.01c-6.29,0.3-24.13-6.15-32.65-16.79
		c-5.2-6.5-9.25-17.26-9.99-29.43c-6.4,8.68-23.47,21.36-36.85,21.36c-18.12,0-37.25-6.77-49.43-20.08
		c-12.18,13.31-31.31,20.08-49.43,20.08c-13.39,0-30.48-12.69-36.89-21.36c-0.74,12.16-4.75,22.93-9.96,29.43
		c-8.51,10.63-25.88,17.08-32.17,16.79c6.39,11.55,17.05,26.82,17.05,49.01c0,14.98-3.4,25.64-7.03,35.48
		c-2.98,8.08-7.55,17.09-7.55,35.01c0,35.52,17.53,56.34,39.67,68.59c27.96,15.47,61.32,17.48,76.38,22.45
		c5.03,1.66,9.25,5.81,9.92,6.87c0.67-1.06,4.89-5.22,9.92-6.87c15.06-4.96,48.42-6.98,76.38-22.45
		c22.15-12.25,39.67-33.08,39.67-68.59c0-17.91-4.57-26.93-7.55-35.01C255.21,128.41,251.81,117.76,251.81,102.77z"/>
	<path d="M248.34,103.93c0-21.5,9.31-36.88,15.5-48.06c-6.09,0.29-21.9-5.38-30.15-15.69c-5.04-6.3-8.31-15.12-9.03-26.91
		c-6.2,8.41-23.39,19.09-36.36,19.09c-17.55,0-36.09-6.56-47.89-19.46c-11.8,12.9-30.34,19.46-47.89,19.46
		c-12.97,0-30.16-10.69-36.36-19.09c-0.72,11.79-3.99,20.61-9.03,26.91C38.9,50.48,23.09,56.15,17,55.87
		c6.19,11.19,15.5,26.56,15.5,48.06c0,14.52-3.29,24.84-6.81,34.38c-2.89,7.83-7.31,16.56-7.31,33.92
		c0,34.41,16.98,54.59,38.44,66.46c27.09,14.99,59.41,16.94,74,21.75c4.87,1.6,8.96,5.63,9.61,6.66c0.65-1.03,4.73-5.05,9.61-6.66
		c14.59-4.81,46.91-6.76,74-21.75c21.46-11.87,38.44-32.05,38.44-66.46c0-17.35-4.42-26.09-7.31-33.92
		C251.63,128.77,248.34,118.45,248.34,103.93z"/>
	<path class="st1" d="M243.7,138.43c-3.32-8.29-6.75-15.4-6.75-28.58c0-19.92,6.08-33.92,11.91-48.42
		c-6.46-0.75-28.96-12.5-31.41-29.83c-2.85,2.5-15.17,10.92-35.33,10.92c-25.33,0-41.69-14.01-41.69-14.01s-16.36,14.01-41.69,14.01
		c-20.17,0-32.49-8.42-35.33-10.92c-2.46,17.33-24.96,29.08-31.42,29.83c5.83,14.5,11.92,28.5,11.92,48.42
		c0,13.19-3.43,20.29-6.75,28.58c-3.67,9.16-7.25,19.54-7.25,35.58c0,34.7,23.38,53.21,47.75,62.42
		c21.69,8.19,40.98,9.87,49.92,12.25c5.98,1.59,10.77,3.97,12.88,6.39c2.11-2.42,6.86-4.8,12.84-6.39
		c8.94-2.38,28.23-4.06,49.92-12.25c24.37-9.2,47.75-27.72,47.75-62.42C250.95,157.96,247.36,147.59,243.7,138.43z M140.45,39.58
		c5.46,3.85,23.92,11.79,41.83,11.79c13.88,0,26.75-4.94,30.96-8.15c2.42,6.33,10.79,16.71,23.83,22.46
		c-1.13,1.92-9.35,24.33-9.35,41.06c0,19.07,6.88,33.28,11.08,47.08L72.16,45.77c6.03,2.77,15.95,5.59,26.45,5.59
		C116.53,51.37,134.99,43.43,140.45,39.58z M181.2,234.76c-16.05,3.53-34.99,5.48-40.78,10.73c-5.78-5.25-24.68-7.2-40.72-10.73
		c-4.58-1.01-8.93-2.55-12.67-3.83c-24.78-8.51-48.1-24.88-48.1-58.81c0-14.38,6.96-27.2,11.15-42.99l152.32,98.5
		c-2.81,1.22-5.66,2.32-8.54,3.31C190.13,232.21,185.77,233.76,181.2,234.76z M211.27,223.24L52.02,120.26
		c0.72-4.25,1.16-8.73,1.16-13.51c0-16.73-8.23-39.15-9.35-41.06c8.85-3.9,15.54-9.93,19.69-15.39l178.01,115.42
		c0.28,2.11,0.45,4.23,0.45,6.4C241.97,197.84,228.55,213.47,211.27,223.24z"/>
	<polygon class="st1" points="70.53,67.18 70.53,120.6 79.22,126.24 79.22,91.55 96.65,137.54 109.47,145.85 109.47,92.42 
		100.4,86.55 100.4,122.13 81.4,74.23 	"/>
	<polygon class="st1" points="122.78,154.48 122.78,101.06 132.47,107.34 132.47,127.24 153.34,140.3 153.34,120.87 162.72,126.95 
		162.72,180.38 153.34,174.3 153.34,152.24 132.47,139.3 132.47,160.76 	"/>
	<polygon class="st1" points="175.97,188.97 175.97,135.54 186.59,142.43 186.59,184.88 210.97,200.69 210.97,211.67 	"/>
</g>
</svg>
