<?xml version="1.0" encoding="utf-8"?>
<!-- Generator: Adobe Illustrator 23.1.0, SVG Export Plug-In . SVG Version: 6.00 Build 0)  -->
<svg version="1.1" id="rangers" class="teamLogo" xmlns="http://www.w3.org/2000/svg" xmlns:xlink="http://www.w3.org/1999/xlink" x="0px" y="0px"
	 viewBox="0 0 2500 2500" style="enable-background:new 0 0 2500 2500;" xml:space="preserve">
<style type="text/css">
	.st121{fill-rule:evenodd;clip-rule:evenodd;fill:#FFFFFF;}
	.st12{fill-rule:evenodd;clip-rule:evenodd;fill:#2360A5;}
	.st13{fill-rule:evenodd;clip-rule:evenodd;fill:#CF4044;}
</style>
<g id="new_york_rangers_logo">
	<path class="st121" d="M2301.87,131.98L2301.87,131.98h-486.82L1740,216.66c0,0-67.86-77.68-73.94-84.68H834.02
		c-6.13,7-73.95,84.72-73.95,84.72s-68.97-77.81-75.08-84.72H91.06l175.71,257.28v1589.61c0,63.6,17.91,113.76,53.23,149.02
		c51.19,51.18,118.84,51.05,141.09,51h563.08c134.48,0,171.1,60.19,174.85,67.05l49.87,91.75l52.09-91.75
		c3.75-6.86,40.32-67.05,174.83-67.05h562.06c22.49,0.05,90.94,0.17,142.19-51.02c35.32-35.25,53.23-85.39,53.23-149V389.26
		l175.68-257.28H2301.87z"/>
	<path class="st121" d="M324.52,1090.74v890.94c0,0,10.48,141.47,141.5,141.47h628.89c0,0,154.6,57.65,154.6,91.72
		c0,0,94.32-99.58,170.32-99.58h421.89L324.52,1090.74z"/>
	<path class="st12" d="M1767.66,2122.36L324.76,1079.88V371.79L199.58,188.5h461.36l100.88,113.76l99.31-113.76h780.66l99.3,113.76
		l100.89-113.76h461.36l-125.11,183.29v1607.08c0,145.51-112.58,143.47-138.87,143.47L1767.66,2122.36L1767.66,2122.36z"/>
	<path class="st12" d="M312.53,1098.28l1465.79,1048.8l26.33-36.81L338.86,1061.48L312.53,1098.28z"/>
	<path class="st121" d="M919.58,859.6l1249.94,894.97l19.79-27.56L979.65,859.6L919.58,859.6L919.58,859.6z M297.63,1020.73
		l1550.16,1133.16l20.06-27.41L317.64,993.34L297.63,1020.73z M320.83,775.79v33.93H2175.5v-33.93H320.83z"/>
	<path class="st13" d="M1065.69,860.56h1110.65v804.23L1065.69,860.56z"/>
	<path class="st12" d="M2301.87,165.91h-471.57c0,0-67.03,75.56-90.55,102.12l-89.17-102.12H849.4l-89.17,102.12
		c-23.53-26.55-90.58-102.12-90.58-102.12H155.27l145.42,212.89v1600.09c0,54.27,14.59,96.34,43.29,125.04
		c41.15,41.11,98.28,41.09,117.07,41.04h563.12c162.73,0,203.61,82.45,205.27,85.95l20.43,43.24l20.65-43.24
		c1.67-3.5,42.55-85.95,205.29-85.95h562.06c19.86,0.05,76.96,0.08,118.17-41.06c28.73-28.73,43.29-70.78,43.29-125.02V378.79
		c7.37-10.82,145.38-212.89,145.38-212.89H2301.87L2301.87,165.91z M2259.02,211.13L2154.1,364.81v1614.06
		c0,41.8-10.1,73.11-30.01,92.99c-27.94,27.91-69.44,27.86-85.09,27.86h-563.17c-132.23,0-196.86,49.7-225.83,83.08
		c-28.97-33.38-93.58-83.08-225.82-83.08H462.11c-16.73,0-58.25,0.05-86.15-27.82c-19.95-19.93-30.04-51.22-30.04-93.05V364.81
		L240.97,211.13h408.35L760.51,336.5l109.44-125.37h760.12L1739.5,336.5c0,0,99.4-112.11,111.12-125.37H2259.02z"/>
	<path class="st121" d="M413.06,715.62h-54.65V379.9h55.6l91.2,208.58l0.93-208.58h54.67v335.72h-55.6l-91.2-209.94L413.06,715.62
		L413.06,715.62z M778.2,513.37v61.54H664.82v75.55h131.81v65.16H610.15V379.9h183.37v65.15h-128.7v68.32H778.2z M921.55,715.62
		h-59.04L801,379.9h57.79l37.47,245.23l40.28-245.23h49.97l39.99,245.23l37.81-245.23h57.77l-61.84,335.72h-59.04l-39.66-247.94
		L921.55,715.62L921.55,715.62z M1354.76,379.9h60.31l-83.11,209.03v126.69h-54.64V588.93l-83.38-209.03h62.46l49.35,145.24
		L1354.76,379.9L1354.76,379.9z M1589.65,624.68c-8.13,23.53-23.44,35.29-46.56,35.29c-21.84-0.47-36.83-10.86-45.26-32.13
		c-8.77-21.72-12.81-48.42-12.81-80.09c0.3-31.67,4.41-57.91,12.81-79.65c8.74-21.71,23.73-32.57,45.26-32.57
		c23.73,0.47,39.04,11.78,46.56,34.85c7.81,23.06,11.56,48.86,11.56,77.36C1600.88,575.81,1597.14,601.15,1589.65,624.68z
		 M1454.69,674.44c19.71,33.93,49.09,50.67,88.4,50.67c40.96,0,70.59-17.2,89.04-51.58c18.74-34.84,28.09-76.47,28.09-125.78
		s-9.35-90.94-28.09-125.33c-18.74-34.85-48.43-52.03-89.04-52.03c-40.58,0.45-70.24,17.64-88.99,52.03
		c-18.74,34.84-28.12,76.46-28.12,125.33C1426.3,598.89,1435.66,640.95,1454.69,674.44z M1753.63,445.04h48.1
		c12.18,0.45,21.23,3.18,27.46,9.05c6.59,5.89,9.73,17.18,9.73,34.38c0,16.29-3.45,27.15-10.34,33.03
		c-6.86,6.33-14.97,9.05-24.98,9.05h-49.99v-85.52L1753.63,445.04L1753.63,445.04z M1698.96,715.62h54.67V591.64h42.18
		c12.81,0.45,22.14,3.61,28.42,10.4c6.23,6.78,9.35,20.8,9.35,42.07c0,21.27,0.64,36.65,1.89,46.61c1.85,9.96,4.05,18.09,7.2,24.89
		h55.58c-4.69-9.47-7.45-19.78-8.13-30.32c-0.7-14.47-1.01-28.96-0.93-43.45c-0.32-21.26-2.18-38.44-6.23-52.48
		c-4.38-14.47-13.13-24.43-26.85-30.31c11.24-5.43,20.28-14.94,27.16-28.51c7.47-14.47,10.92-32.58,10.92-55.21
		c-0.3-30.31-6.54-53.38-19.35-70.11c-13.13-17.2-32.15-25.34-57.14-25.34h-118.7v335.74L1698.96,715.62L1698.96,715.62z
		 M2079.73,379.9h68.07l-93.07,138.89l99.96,196.83h-68.12l-69.61-144.78l-26.28,38.47v106.31h-54.67V379.9h54.67v136.65
		L2079.73,379.9L2079.73,379.9z M806.33,941.27l39.04,28.31c9.61,7.55,15.38,15.07,16.99,23.51c1.87,8.64-2.24,19.61-12.33,33.51
		c-9.57,13.19-18.74,19.96-27.76,20.67c-9.31,1.08-17.5-1.52-25.6-7.39l-40.54-29.42L806.33,941.27L806.33,941.27z M603.08,1128.07
		l44.36,32.18l72.8-100.33l34.23,24.84c10.13,7.89,15.87,15.97,16.96,25.14c1.08,9.18-4.63,22.37-17.11,39.58
		c-12.52,17.22-21.04,30.03-25.86,38.83c-4.32,9.16-7.33,17.04-8.79,24.36l45.12,32.74c1.77-10.41,5.58-20.37,11.22-29.3
		c7.91-12.13,16.17-24.04,24.75-35.72c12.24-17.39,20.82-32.41,25.77-46.15c4.94-14.29,3.71-27.5-3.99-40.36
		c12.31,2.22,25.23-0.12,38.78-7.07c14.59-7.3,28-19.92,41.3-38.23c17.56-24.71,26.04-47.07,25.47-68.16
		c-0.54-21.65-11.23-39.45-31.49-54.17l-96.31-69.88L603.08,1128.07L603.08,1128.07z M911.74,1203.91l99.78-85.81l-50.87,121.31
		L911.74,1203.91z M1040.51,1030.69l-267.63,220.59l46.89,34.02l48.86-42.24l68.17,49.47l-24.77,59.73l46.89,34.02l126.46-323.02
		L1040.51,1030.69L1040.51,1030.69z M1020.75,1431.16l-44.34-32.2l197.17-271.72l45.11,32.72l-48.49,222.54l123.28-168.27
		l44.34,32.19l-197.17,271.73l-45.13-32.76l49.3-223.62L1020.75,1431.16L1020.75,1431.16z M1462.13,1526.13l-107.08,147.58
		l-32.96-23.89l21.28-29.31c-17.76,10.05-33.31,13.88-47.42,11.45c-13.58-2.04-26.46-7.35-37.52-15.47
		c-30.91-22.44-44.94-51.62-41.8-88.45c3.13-36.33,21.31-77.36,54.52-123.69c29.51-40.63,57.4-67.35,84.49-80.15
		c26.8-12.41,49.57-16.56,68.75-12.14c17.72,3.86,34.53,11.12,49.49,21.37c25.36,18.39,38,41.52,37.85,70.5
		c0.16,28.6-8.24,56.64-25.08,85.21l-46.38-33.64c7.8-10.52,12.14-23.21,12.41-36.3c0.53-13.02-5.16-23.84-17.56-32.85
		c-20.28-14.72-40.35-15.33-61.28-1.41c-20.14,13.9-38.59,32.37-56.11,56c-21.79,30.01-33.44,55.68-35.46,77.66
		c-1.52,21.28,5.1,37.24,19.53,48.29c12.67,9.2,26.5,11.96,42.05,7.6c15.28-4.01,28.65-13.88,40.08-29.61l-37.52-27.24l35.87-49.44
		L1462.13,1526.13L1462.13,1526.13z M1646.65,1635.46l-36.12,49.78l-92.01-66.76l-44.38,61.15l106.95,77.61l-38.25,52.75
		l-151.31-109.79l197.18-271.73l148.75,107.96l-38.22,52.71l-104.45-75.76l-40.13,55.29L1646.65,1635.46L1646.65,1635.46z
		 M1772.2,1642.11l39.04,28.33c9.62,7.55,15.38,15.07,17,23.5c1.85,8.61-2.26,19.61-12.33,33.54
		c-9.55,13.18-18.74,19.93-27.77,20.65c-9.27,1.09-17.48-1.49-25.62-7.37l-40.53-29.42L1772.2,1642.11L1772.2,1642.11z
		 M1568.94,1828.94l44.38,32.16l72.8-100.33l34.2,24.82c10.13,7.9,15.89,16,16.95,25.15c1.09,9.17-4.6,22.37-17.09,39.6
		c-12.49,17.2-21.02,30.01-25.86,38.81c-4.31,9.17-7.31,17.04-8.79,24.4l45.13,32.72c1.79-10.41,5.59-20.38,11.19-29.34
		c7.93-12.12,16.18-24.02,24.75-35.69c12.26-17.41,20.82-32.42,25.76-46.19c4.97-14.29,3.7-27.48-4.01-40.35
		c12.31,2.23,25.25-0.13,38.81-7.07c14.57-7.29,27.99-19.93,41.3-38.22c17.56-24.72,26.02-47.09,25.49-68.17
		c-0.56-21.66-11.24-39.47-31.52-54.19l-96.31-69.87L1568.94,1828.94L1568.94,1828.94z M1859.54,1905.09
		c-8.24,11.35-13.63,23.61-15.76,37.18c-2.1,13.02,4.33,24.95,19.8,36.17c9.38,6.78,18.55,10.66,28.07,11.43
		c9.52,0.77,18.66-4.92,27.96-17.73c9.57-13.2,12.39-24.55,8.51-35.21c-3.9-10.08-13.1-24.58-27.35-43.88
		c-13.98-19.1-22.59-37.61-25.51-56.51c-2.66-18.72,6.08-42,26.55-70.19c18.57-25.64,39.52-40.63,62.83-44.99
		c23.25-4.36,47.31,2.5,72.16,20.52c22.32,16.19,34.47,36.2,35.97,60.78c1.8,24.21-6.23,48.58-24.32,73.49l-42.05-30.53
		c9.3-12.81,12.11-23.63,8.46-33.54c-3.64-9.38-9.14-16.72-17-22.42c-9.38-6.81-18.6-9.57-27.64-8.31
		c-8.79,1.44-16.37,6.56-23.28,15.55c-7.95,10.97-10.23,20.52-6.56,29.31c3.67,8.26,12.89,21.66,27.41,41.14
		c15.05,18.74,24.4,37.85,28.07,57.81c3.67,19.45-4.31,42.74-23.73,70.01c-17.51,24.16-38.51,40.8-63.44,50.66
		c-24.67,9.47-51.58,3.37-81.77-17.94c-30.91-22.46-45.04-47.78-42.61-76.2c2.71-28.25,12.81-54.46,30.38-79.17L1859.54,1905.09z"/>
</g>
</svg>
