<?xml version="1.0" encoding="utf-8"?>
<!-- Generator: Adobe Illustrator 23.1.0, SVG Export Plug-In . SVG Version: 6.00 Build 0)  -->
<svg version="1.1" id="blues" class="teamLogo" xmlns="http://www.w3.org/2000/svg" xmlns:xlink="http://www.w3.org/1999/xlink"
	 x="0px" y="0px" viewBox="0 0 76.27 61.1" style="enable-background:new 0 0 76.27 61.1;" xml:space="preserve">
<style type="text/css">
	.st7{fill-rule:evenodd;clip-rule:evenodd;fill:#D50032;}
	.st8{fill-rule:evenodd;clip-rule:evenodd;fill:#FFC72C;}
	.st9{fill:#003087;}
	.st10{fill:#FFFFFF;}
</style>
<g id="logo">
	<g id="notes">
		<path id="red_note" class="st7" d="M67.83,15.55c3.58-2.75,3.5-6.22,3.48-6.38c0,0-0.03-0.28-0.06-0.55
			C75.87,5.06,76.27,0,76.27,0h-62.8l2.29,3.75l0.01,0.02l0.01,0.01c1.97,3.5,2.69,5.04-0.64,4.95L9.68,0H0l22.93,37.44
			c-0.32-0.01-0.63-0.02-0.95-0.02c-5.41,0-10.49,1.84-13.58,4.93c-2.01,2-3.08,4.4-3.08,6.91c0,2.52,1.07,4.91,3.08,6.92
			c3.09,3.08,8.17,4.92,13.58,4.92c9.18,0,16.66-5.31,16.66-11.84c0-1.54-0.41-2.99-1.29-4.57l-0.01-0.02l-0.01-0.02L32,36.01
			c3.37,0.75,7.16-0.32,7.16-0.32s-1.2-1.78-1.51-2.21c6.95,0.49,10.34-0.68,10.5-0.74l1.63-0.58l-1.85-1.9
			c9.6-0.58,13.86-7.73,13.86-7.73C67.05,20.06,67.81,15.7,67.83,15.55L67.83,15.55z"/>
		<path id="yellow_note" class="st8" d="M16.57,1.82l0.66,1.02c1.84,2.84,2.41,4.98,1.64,6.19c-0.87,1.38-3.46,1.47-4.7,1.38
			L8.73,1.82H3.18L26.4,39.56c-1.4-0.27-2.93-0.42-4.42-0.42c-4.97,0-9.59,1.65-12.37,4.43c-1.68,1.68-2.57,3.64-2.57,5.7
			c0,2.05,0.89,4.02,2.57,5.7c2.78,2.77,7.4,4.42,12.37,4.42c8.24,0,14.94-4.54,14.94-10.13c0-1.28-0.35-2.5-1.08-3.73l-7.61-12.36
			c1.91,0.56,4.97,1.35,6.73,1.28l1.24-0.05l-0.73-1c-0.28-0.38-0.86-1.22-1.33-1.95c8.8,0.85,12.4-0.07,12.4-0.07l-0.85-0.92
			c-0.01-0.01-0.79-0.85-1.65-1.77C55.54,29,59.8,22.72,59.8,22.72h-3.04c7.92-2.35,9.03-6.19,9.03-6.19h-3.05
			c7.33-3.83,6.88-6.63,6.88-6.63h-3.28c7.15-4.36,7.48-8.07,7.48-8.07L16.57,1.82L16.57,1.82z"/>
		<g id="blue_note">
			<g>
				<polygon class="st9" points="68.77,10.56 68.77,10.56 68.75,10.56 				"/>
				<path class="st9" d="M17.78,2.49c6.4,9.9-4.01,8.55-4.01,8.55L8.36,2.49H4.37l23.39,38.09c-1.74-0.5-3.76-0.78-5.78-0.78
					c-7.89,0-14.28,4.23-14.28,9.46c0,5.22,6.39,9.46,14.28,9.46c7.88,0,14.27-4.24,14.27-9.46c0-1.21-0.4-2.3-0.98-3.38
					l-8.53-13.87c0,0,5.66,1.88,8.19,1.77c0,0-1.4-1.8-1.99-3.1c0,0,8.45,0.78,12.25,0.22c0,0-1.64-1.77-2.81-2.98
					c0,0,10.24,1.21,15.81-4.48H29.48l-0.46-0.71h25.24c3.41-0.84,8.56-2.56,10.33-5.49H25.73l-0.46-0.66h35.91
					c2.3-1.16,7-3.76,7.58-5.97H21.57l-0.46-0.7h43.92c2.19-1.29,6.83-4.32,7.86-7.42H17.78z"/>
			</g>
		</g>
	</g>
	<g id="st._louis">
		<path class="st10" d="M34.32,5.61c-0.02-0.46-0.17-1.34-1.65-1.34c-1.02,0-1.45,0.65-1.45,1.3c0,0.73,0.62,0.93,0.9,0.99l0.86,0.2
			c0.69,0.16,0.9,0.31,0.9,0.75c0,0.6-0.69,0.71-1.11,0.71c-0.54,0-1.16-0.22-1.16-0.99h-0.53c0,0.39,0.07,0.75,0.43,1.07
			C31.7,8.47,32,8.71,32.79,8.71c0.72,0,1.65-0.28,1.65-1.28c0-0.67-0.41-1-0.96-1.13l-1.2-0.28c-0.25-0.06-0.5-0.18-0.5-0.53
			c0-0.64,0.61-0.74,0.96-0.74c0.48,0,1.02,0.21,1.05,0.86L34.32,5.61L34.32,5.61z"/>
		<polygon class="st10" points="34.79,4.88 36.22,4.88 36.22,8.59 36.79,8.59 36.79,4.88 38.22,4.88 38.22,4.38 34.79,4.38 		"/>
		<polygon class="st10" points="38.08,7.97 37.47,7.97 37.47,8.59 38.08,8.59 		"/>
		<polygon class="st10" points="41.89,4.38 41.32,4.38 41.32,8.59 44.03,8.59 44.03,8.09 41.89,8.09 		"/>
		<path class="st10" d="M47.89,6.49c0,0.99-0.55,1.71-1.47,1.71c-0.92,0-1.47-0.72-1.47-1.71s0.55-1.71,1.47-1.71
			C47.34,4.77,47.89,5.49,47.89,6.49L47.89,6.49z M48.48,6.49c0-0.91-0.48-2.22-2.06-2.22s-2.06,1.31-2.06,2.22s0.48,2.22,2.06,2.22
			S48.48,7.4,48.48,6.49L48.48,6.49z"/>
		<path class="st10" d="M51.93,4.38v2.67c0,0.92-0.59,1.16-1.11,1.16c-0.51,0-1.07-0.25-1.07-1.17V4.38h-0.57v2.81
			c0,0.79,0.49,1.52,1.62,1.52c1.16,0,1.7-0.73,1.7-1.59V4.38H51.93L51.93,4.38z"/>
		<polygon class="st10" points="54.06,4.38 53.49,4.38 53.49,8.59 54.06,8.59 		"/>
		<path class="st10" d="M58.12,5.61c-0.02-0.46-0.17-1.34-1.65-1.34c-1.02,0-1.45,0.65-1.45,1.3c0,0.73,0.62,0.93,0.9,0.99l0.86,0.2
			c0.69,0.16,0.9,0.31,0.9,0.75c0,0.6-0.69,0.71-1.11,0.71c-0.54,0-1.16-0.22-1.16-0.99h-0.53c0,0.39,0.07,0.75,0.43,1.07
			c0.19,0.17,0.49,0.41,1.28,0.41c0.72,0,1.65-0.28,1.65-1.28c0-0.67-0.41-1-0.96-1.13l-1.2-0.28c-0.25-0.06-0.5-0.18-0.5-0.53
			c0-0.64,0.61-0.74,0.96-0.74c0.48,0,1.02,0.21,1.05,0.86L58.12,5.61L58.12,5.61z"/>
	</g>
</g>
</svg>
